<svg width="72" height="72" viewBox="0 0 72 72" fill="none" xmlns="http://www.w3.org/2000/svg">
<path d="M24.51 8.28C28.1552 6.77984 32.0582 6.00537 36 6C39.93 6 43.83 6.78 47.49 8.28C51.12 9.78 54.42 12 57.21 14.79C60 17.58 62.22 20.88 63.72 24.51C65.22 28.17 66 32.07 66 36C66 43.95 62.85 51.6 57.21 57.21C54.4279 59.9999 51.1219 62.2127 47.482 63.7212C43.8421 65.2296 39.9401 66.0041 36 66C32.0582 65.9946 28.1552 65.2202 24.51 63.72C20.8742 62.2089 17.5714 59.9968 14.79 57.21C12.0001 54.4278 9.78731 51.1219 8.27885 47.482C6.77039 43.8421 5.99595 39.9401 6.00002 36C6.00002 28.05 9.15002 20.4 14.79 14.79C17.58 12 20.88 9.78 24.51 8.28ZM36 51L40.68 40.74L51 36L40.68 31.32L36 21L31.29 31.32L21 36L31.29 40.74L36 51Z" fill="#9CDE9F"/>
</svg>
