<svg width="72" height="72" viewBox="0 0 72 72" fill="none" xmlns="http://www.w3.org/2000/svg">
<path d="M53.5608 1.01522L54.8136 4.87082C55.2025 6.04394 55.8605 7.10976 56.735 7.98304C57.6096 8.85632 58.6763 9.51282 59.85 9.90002L63.7056 11.1528L63.7812 11.1744C64.0786 11.2791 64.3361 11.4735 64.5183 11.7308C64.7005 11.9881 64.7984 12.2956 64.7984 12.6108C64.7984 12.9261 64.7005 13.2336 64.5183 13.4909C64.3361 13.7481 64.0786 13.9425 63.7812 14.0472L59.9256 15.3C58.7519 15.6872 57.6852 16.3437 56.8106 17.217C55.9361 18.0903 55.2781 19.1561 54.8892 20.3292L53.6364 24.1812C53.5317 24.4786 53.3373 24.7362 53.08 24.9183C52.8228 25.1005 52.5153 25.1984 52.2 25.1984C51.8847 25.1984 51.5773 25.1005 51.32 24.9183C51.0627 24.7362 50.8683 24.4786 50.7636 24.1812L49.5072 20.3292C49.1214 19.1535 48.4655 18.0845 47.592 17.208C46.718 16.3298 45.6502 15.6689 44.4744 15.2784L40.6188 14.0256C40.3214 13.9209 40.0639 13.7265 39.8817 13.4693C39.6995 13.212 39.6017 12.9045 39.6017 12.5892C39.6017 12.274 39.6995 11.9665 39.8817 11.7092C40.0639 11.4519 40.3214 11.2575 40.6188 11.1528L44.4744 9.90002C45.6334 9.50234 46.6844 8.84116 47.5445 7.96849C48.4047 7.09581 49.0507 6.03545 49.4316 4.87082L50.6844 1.01882C50.7883 0.720196 50.9826 0.461326 51.2403 0.278136C51.4981 0.0949456 51.8064 -0.003479 52.1226 -0.003479C52.4388 -0.003479 52.7472 0.0949456 53.0049 0.278136C53.2626 0.461326 53.4569 0.716596 53.5608 1.01522ZM71.2188 29.5704L68.4612 28.6776C67.6245 28.3979 66.8642 27.9273 66.2407 27.3031C65.6171 26.6789 65.1473 25.9183 64.8684 25.0812L63.9684 22.3308C63.8939 22.1182 63.7551 21.9339 63.5713 21.8036C63.3875 21.6733 63.1677 21.6032 62.9424 21.6032C62.7171 21.6032 62.4973 21.6733 62.3135 21.8036C62.1297 21.9339 61.9909 22.1182 61.9164 22.3308L61.0236 25.0812C60.7498 25.9129 60.2877 26.6701 59.6732 27.2939C59.0588 27.9177 58.3086 28.3913 57.4812 28.6776L54.7272 29.5704C54.5162 29.6466 54.3338 29.786 54.2049 29.9696C54.0759 30.1532 54.0068 30.3721 54.0068 30.5964C54.0068 30.8208 54.0759 31.0397 54.2049 31.2233C54.3338 31.4069 54.5162 31.5463 54.7272 31.6224L57.4812 32.5188C58.3205 32.7987 59.0829 33.2705 59.7078 33.8967C60.3327 34.5229 60.803 35.2862 61.0812 36.126L61.974 38.8764C62.0485 39.0891 62.1873 39.2733 62.3711 39.4036C62.5549 39.534 62.7747 39.604 63 39.604C63.2253 39.604 63.4451 39.534 63.6289 39.4036C63.8127 39.2733 63.9515 39.0891 64.026 38.8764L64.9224 36.126C65.2017 35.2886 65.672 34.5277 66.2962 33.9035C66.9205 33.2792 67.6814 32.8089 68.5188 32.5296L71.2728 31.6368C71.4838 31.5606 71.6662 31.4213 71.7951 31.2377C71.9241 31.0541 71.9932 30.8352 71.9932 30.6108C71.9932 30.3865 71.9241 30.1676 71.7951 29.984C71.6662 29.8004 71.4838 29.661 71.2728 29.5848L71.2188 29.5704ZM23.4 36C22.9226 36 22.4648 35.8104 22.1272 35.4728C21.7896 35.1353 21.6 34.6774 21.6 34.2C21.6 33.7226 21.7896 33.2648 22.1272 32.9272C22.4648 32.5897 22.9226 32.4 23.4 32.4C23.8774 32.4 24.3352 32.5897 24.6728 32.9272C25.0104 33.2648 25.2 33.7226 25.2 34.2C25.2 34.6774 25.0104 35.1353 24.6728 35.4728C24.3352 35.8104 23.8774 36 23.4 36ZM25.2 48.6C25.2 49.0774 25.0104 49.5353 24.6728 49.8728C24.3352 50.2104 23.8774 50.4 23.4 50.4C22.9226 50.4 22.4648 50.2104 22.1272 49.8728C21.7896 49.5353 21.6 49.0774 21.6 48.6C21.6 48.1226 21.7896 47.6648 22.1272 47.3272C22.4648 46.9897 22.9226 46.8 23.4 46.8C23.8774 46.8 24.3352 46.9897 24.6728 47.3272C25.0104 47.6648 25.2 48.1226 25.2 48.6ZM21.6 10.8H36.378C36.15 11.374 36.0221 11.9828 36 12.6C36.0126 13.6815 36.3678 14.7312 37.0147 15.598C37.6616 16.4649 38.5668 17.1042 39.6 17.424L41.3604 18H19.8C19.3226 18 18.8648 18.1897 18.5272 18.5272C18.1896 18.8648 18 19.3226 18 19.8C18 20.2774 18.1896 20.7353 18.5272 21.0728C18.8648 21.4104 19.3226 21.6 19.8 21.6H46.1988L47.34 25.2C47.664 26.1288 48.24 26.9496 48.996 27.576C49.476 27.9312 50.004 28.1832 50.58 28.332C50.3344 29.0617 50.2725 29.8407 50.4 30.6C50.3989 31.2177 50.52 31.8294 50.7564 32.4H34.2C33.7226 32.4 33.2648 32.5897 32.9272 32.9272C32.5896 33.2648 32.4 33.7226 32.4 34.2C32.4 34.6774 32.5896 35.1353 32.9272 35.4728C33.2648 35.8104 33.7226 36 34.2 36H52.2C52.516 36 52.8264 35.9168 53.1 35.7589C53.3736 35.6009 53.6008 35.3736 53.7588 35.1L56.376 35.928C56.6688 36.048 56.9328 36.216 57.168 36.432C57.3966 36.6663 57.5689 36.9494 57.672 37.26L58.536 39.996C58.7598 40.6282 59.112 41.2073 59.5705 41.6967C60.029 42.1862 60.5838 42.5754 61.2 42.84V50.4C61.2 53.2644 60.0622 56.0114 58.0368 58.0368C56.0114 60.0622 53.2643 61.2 50.4 61.2H21.6C18.7357 61.2 15.9886 60.0622 13.9633 58.0368C11.9379 56.0114 10.8 53.2644 10.8 50.4V21.6C10.8 18.7357 11.9379 15.9887 13.9633 13.9633C15.9886 11.9379 18.7357 10.8 21.6 10.8ZM23.4 39.6C24.8322 39.6 26.2057 39.0311 27.2184 38.0184C28.2311 37.0057 28.8 35.6322 28.8 34.2C28.8 32.7679 28.2311 31.3943 27.2184 30.3816C26.2057 29.3689 24.8322 28.8 23.4 28.8C21.9678 28.8 20.5943 29.3689 19.5816 30.3816C18.5689 31.3943 18 32.7679 18 34.2C18 35.6322 18.5689 37.0057 19.5816 38.0184C20.5943 39.0311 21.9678 39.6 23.4 39.6ZM28.8 48.6C28.8 47.1679 28.2311 45.7943 27.2184 44.7816C26.2057 43.769 24.8322 43.2 23.4 43.2C21.9678 43.2 20.5943 43.769 19.5816 44.7816C18.5689 45.7943 18 47.1679 18 48.6C18 50.0322 18.5689 51.4057 19.5816 52.4184C20.5943 53.4311 21.9678 54 23.4 54C24.8322 54 26.2057 53.4311 27.2184 52.4184C28.2311 51.4057 28.8 50.0322 28.8 48.6ZM34.2 46.8C33.7226 46.8 33.2648 46.9897 32.9272 47.3272C32.5896 47.6648 32.4 48.1226 32.4 48.6C32.4 49.0774 32.5896 49.5353 32.9272 49.8728C33.2648 50.2104 33.7226 50.4 34.2 50.4H52.2C52.6774 50.4 53.1352 50.2104 53.4728 49.8728C53.8104 49.5353 54 49.0774 54 48.6C54 48.1226 53.8104 47.6648 53.4728 47.3272C53.1352 46.9897 52.6774 46.8 52.2 46.8H34.2Z" fill="#9CDE9F"/>
</svg>
