<svg width="72" height="72" viewBox="0 0 72 72" fill="none" xmlns="http://www.w3.org/2000/svg">
<path d="M69.75 18.007C69.7525 16.2731 69.2541 14.5754 68.3147 13.118C67.3753 11.6606 66.0349 10.5056 64.4547 9.7919C62.8745 9.07816 61.1218 8.83607 59.4073 9.09474C57.6928 9.3534 56.0895 10.1018 54.7903 11.25C54.0868 11.8704 53.4839 12.5963 53.0029 13.4016V13.41C52.927 13.5366 52.8553 13.6659 52.785 13.7953L52.7512 13.8642C52.6921 13.9753 52.6373 14.0878 52.5839 14.2017C52.567 14.2369 52.5515 14.272 52.5361 14.3072C52.4896 14.4098 52.4446 14.5139 52.4025 14.6194C52.3842 14.663 52.3673 14.7066 52.3504 14.7501C52.3125 14.8486 52.2759 14.947 52.2407 15.0469L52.1901 15.1959C52.1592 15.2916 52.1296 15.3886 52.1015 15.4856C52.0846 15.5405 52.0692 15.5939 52.0551 15.6487C52.0284 15.743 52.0059 15.8386 51.9834 15.93C51.9693 15.9876 51.9553 16.0453 51.9426 16.103C51.9229 16.1986 51.9046 16.2956 51.8878 16.3842C51.8765 16.4433 51.8653 16.5023 51.8554 16.5614C51.84 16.6598 51.8273 16.7597 51.8146 16.8595C51.8076 16.9172 51.7992 16.9748 51.7921 17.0339C51.7809 17.1422 51.7739 17.2505 51.7654 17.3601C51.7654 17.4108 51.757 17.4614 51.7542 17.512C51.7457 17.6723 51.7401 17.8326 51.7401 17.9958C51.7401 18.1364 51.7401 18.277 51.7514 18.4092V18.4992C51.7589 18.6314 51.7687 18.7636 51.7809 18.8958L51.7893 18.9633C51.802 19.0828 51.8161 19.2009 51.8343 19.3176C51.8343 19.3415 51.8343 19.3669 51.8442 19.3908C51.8639 19.5187 51.8878 19.6453 51.9131 19.7719C51.9131 19.8028 51.9257 19.8323 51.9314 19.8633C51.9567 19.9842 51.9848 20.1051 52.0157 20.2247V20.2514C52.0481 20.3765 52.0832 20.4989 52.1212 20.6212L52.1507 20.7169C52.1887 20.8364 52.2281 20.9531 52.2703 21.0698C52.2787 21.0951 52.2886 21.1205 52.2984 21.1458C52.3364 21.2456 52.3757 21.3455 52.4165 21.4439C52.4278 21.4734 52.439 21.5016 52.4517 21.5297C52.4995 21.6408 52.5487 21.7519 52.6007 21.8616L52.6471 21.9558C52.6964 22.0542 52.7456 22.1526 52.7976 22.2497C53.5317 23.6139 54.6037 24.7668 55.9111 25.598C56.2542 25.8173 56.6122 26.0123 56.9826 26.1815L57.0375 26.2069C57.2868 26.3194 57.5414 26.4206 57.8011 26.5106L57.9346 26.5556L58.1456 26.6217C58.2089 26.6414 58.2721 26.6583 58.3368 26.6765L58.6068 26.7469L58.8501 26.8031L59.0118 26.8355L59.2692 26.8819L59.4014 26.903C59.5279 26.9212 59.6559 26.9381 59.7839 26.9522L59.8921 26.962C59.9948 26.9705 60.0989 26.9789 60.2029 26.9845L60.3239 26.9916C60.4645 26.9916 60.5967 27.0028 60.7345 27.0028C60.8976 27.0028 61.0579 27.0028 61.2182 26.9887L61.3701 26.9775C61.4798 26.969 61.5881 26.962 61.6964 26.9508L61.8721 26.9283C61.9706 26.9156 62.0704 26.903 62.1689 26.8875L62.3461 26.8551C62.4417 26.8383 62.5387 26.82 62.6273 26.8003L62.8003 26.7595C62.8959 26.737 62.9915 26.7145 63.0815 26.6878C63.1364 26.6737 63.1898 26.6583 63.2446 26.6414C63.3417 26.6133 63.4387 26.5837 63.5343 26.5528L63.6834 26.5022C63.7832 26.467 63.8817 26.4305 63.9801 26.3925L64.1109 26.3405C64.2164 26.2983 64.3204 26.2533 64.4231 26.2069L64.5286 26.1591C64.6425 26.1056 64.755 26.0508 64.8661 25.9917L64.935 25.958C65.0643 25.8876 65.1937 25.8173 65.3203 25.74H65.3287C66.1405 25.2628 66.873 24.6622 67.5 23.9597C68.9521 22.317 69.7525 20.1995 69.75 18.007Z" fill="#9CDE9F"/>
<path d="M52.2253 28.4808L37.3809 40.0261C36.9861 40.3331 36.5002 40.4997 36 40.4997C35.4998 40.4997 35.0139 40.3331 34.6191 40.0261L14.3691 24.2761C14.1311 24.0964 13.9313 23.8713 13.7812 23.6137C13.631 23.3561 13.5336 23.0713 13.4944 22.7757C13.4553 22.4801 13.4754 22.1798 13.5533 21.892C13.6313 21.6042 13.7657 21.3349 13.9487 21.0995C14.1317 20.8641 14.3597 20.6675 14.6193 20.521C14.879 20.3745 15.1652 20.281 15.4613 20.2461C15.7574 20.2111 16.0574 20.2354 16.3441 20.3174C16.6307 20.3994 16.8982 20.5376 17.1309 20.7239L36 35.3995L49.2497 25.0945C47.9677 23.0205 47.2722 20.6377 47.2372 18.1997C47.2023 15.7617 47.8293 13.3599 49.0514 11.25H12.375C10.2871 11.2522 8.28537 12.0826 6.809 13.559C5.33264 15.0354 4.50223 17.0371 4.5 19.125V52.875C4.50223 54.9629 5.33264 56.9646 6.809 58.441C8.28537 59.9174 10.2871 60.7478 12.375 60.75H59.625C61.7129 60.7478 63.7146 59.9174 65.191 58.441C66.6674 56.9646 67.4978 54.9629 67.5 52.875V29.6986C65.1314 31.0706 62.4013 31.6889 59.6728 31.4713C56.9442 31.2538 54.3466 30.2107 52.2253 28.4808Z" fill="#9CDE9F"/>
</svg>
