<svg width="72" height="72" viewBox="0 0 72 72" fill="none" xmlns="http://www.w3.org/2000/svg">
<path d="M69.705 20.475V56.466C69.6825 56.9021 69.5568 57.3267 69.3383 57.7048C69.1198 58.0829 68.8146 58.4037 68.448 58.641L67.269 59.346C61.386 62.751 56.208 65.748 50.976 68.766V29.844L17.277 10.362C23.109 7.01398 28.92 3.63298 34.758 0.299976C35.1474 0.103743 35.5774 0.00152588 36.0135 0.00152588C36.4496 0.00152588 36.8796 0.103743 37.269 0.299976L69.699 19.029V20.475H69.705ZM43.482 34.161C35.79 29.7134 28.096 25.2694 20.4 20.829C20.0099 20.635 19.5802 20.5341 19.1445 20.5341C18.7088 20.5341 18.2791 20.635 17.889 20.829C12.689 23.829 7.48999 26.833 2.29199 29.841L26.631 43.893V72C31.827 69.003 37.011 65.982 42.222 63.015C42.5866 62.7763 42.8902 62.4555 43.1085 62.0783C43.3268 61.7011 43.4537 61.278 43.479 60.843L43.482 34.161ZM2.29499 57.951L19.134 67.674V48.21L2.29499 57.951Z" fill="#9CDE9F"/>
</svg>
